<svg width="532" height="112" viewBox="0 0 532 112" fill="none" xmlns="http://www.w3.org/2000/svg">
<rect y="-7" width="532" height="61" rx="30.5" fill="#FFEED9"/>
<path fill-rule="evenodd" clip-rule="evenodd" d="M-1.06156e-05 87.7142L7.99999 83.9196C16 79.366 32 71.7767 48 77.8482C64 83.9196 81 103.652 97 105.929C113 108.205 129 91.5089 145 81.6428C161 71.7768 177 67.2232 193 71.7768C210 75.5714 226 87.7143 242 97.5803C258 108.205 274 115.795 290 105.929C306 96.0625 322 67.2232 339 63.4286C355 59.634 371 79.3661 387 79.3661C403 79.3661 419 59.634 435 59.634C451 59.634 468 79.3661 484 91.5089C500 103.652 516 108.205 524 109.723L532 112L532 27.0001L524 27.0001C516 27.0001 500 27.0001 484 27.0001C468 27.0001 451 27.0001 435 27.0001C419 27.0001 403 27.0001 387 27.0001C371 27.0001 355 27.0001 339 27.0001C322 27.0001 306 27.0001 290 27.0001C274 27 258 27 242 27C226 27 210 27 193 27C177 27 161 27 145 27C129 27 113 27 97 27C81 27 64 27 48 27C32 27 16 27 8 27L0 27L-1.06156e-05 87.7142Z" fill="#FFEED9"/>
</svg>
