<svg width="532" height="312" viewBox="0 0 532 312" fill="none" xmlns="http://www.w3.org/2000/svg">
<rect y="97" width="532" height="215" rx="50" fill="#FFEED9"/>
<path fill-rule="evenodd" clip-rule="evenodd" d="M0 177L8 172C16 166 32 156 48 164C64 172 81 198 97 201C113 204 129 182 145 169C161 156 177 150 193 156C210 161 226 177 242 190C258 204 274 214 290 201C306 188 322 150 339 145C355 140 371 166 387 166C403 166 419 140 435 140C451 140 468 166 484 182C500 198 516 204 524 206L532 209V97H524C516 97 500 97 484 97C468 97 451 97 435 97C419 97 403 97 387 97C371 97 355 97 339 97C322 97 306 97 290 97C274 97 258 97 242 97C226 97 210 97 193 97C177 97 161 97 145 97C129 97 113 97 97 97C81 97 64 97 48 97C32 97 16 97 8 97H0V177Z" fill="#0099FF"/>
<path fill-rule="evenodd" clip-rule="evenodd" d="M532 32L524 37C516 43 500 53 484 45C468 37 451 11 435 8.00001C419 5.00001 403 27 387 40C371 53 355 59 339 53C322 48 306 32 290 19C274 5.00002 258 -4.99998 242 8.00003C226 21 210 59 193 64C177 69 161 43 145 43C129 43 113 69 97 69C81 69 64 43 48 27C32 11 16 5.00005 7.99999 3.00005L-9.79135e-06 4.65089e-05L0 112L8 112C16 112 32 112 48 112C64 112 81 112 97 112C113 112 129 112 145 112C161 112 177 112 193 112C210 112 226 112 242 112C258 112 274 112 290 112C306 112 322 112 339 112C355 112 371 112 387 112C403 112 419 112 435 112C451 112 468 112 484 112C500 112 516 112 524 112L532 112L532 32Z" fill="#0099FF"/>
</svg>
